<?xml version="1.0" encoding="UTF-8"?>
<!DOCTYPE svg PUBLIC "-//W3C//DTD SVG 1.1//EN" "http://www.w3.org/Graphics/SVG/1.1/DTD/svg11.dtd">
<!-- Creator: CorelDRAW -->
<svg xmlns="http://www.w3.org/2000/svg" xml:space="preserve" width="2048px" height="2048px" style="shape-rendering:geometricPrecision; text-rendering:geometricPrecision; image-rendering:optimizeQuality; fill-rule:evenodd; clip-rule:evenodd"
viewBox="0 0 2048 2048"
 xmlns:xlink="http://www.w3.org/1999/xlink">
 <defs>
  <style type="text/css">
   <![CDATA[
    .fil1 {fill:none}
    .fil2 {fill:#424242}
    .fil3 {fill:#5D4037}
    .fil0 {fill:#FFD54F}
    .fil4 {fill:white}
   ]]>
  </style>
 </defs>
 <g id="Layer_x0020_1">
  <metadata id="CorelCorpID_0Corel-Layer"/>
  <path class="fil0" d="M1024 255.999c424.155,0 768.001,343.845 768.001,768.001 0,424.155 -343.845,768.001 -768.001,768.001 -424.155,0 -768.001,-343.845 -768.001,-768.001 0,-424.155 343.845,-768.001 768.001,-768.001z"/>
  <rect class="fil1" width="2048" height="2048"/>
  <rect class="fil1" x="255.999" y="255.999" width="1536" height="1536"/>
  <rect class="fil1" width="2048" height="2048"/>
  <rect class="fil1" x="255.999" y="255.999" width="1536" height="1536"/>
  <path class="fil2" d="M1103.2 1181.68c-20.2642,-20.2642 -48.267,-32.8004 -79.1989,-32.8004 -30.9307,0 -58.9335,12.5362 -79.1977,32.8004 -20.2654,20.2666 -32.8004,48.2681 -32.8004,79.1989 0,30.9307 12.5362,58.9335 32.8004,79.1977 20.2642,20.2642 48.267,32.8004 79.1977,32.8004 30.9307,0 58.9323,-12.535 79.1989,-32.8004 20.2642,-20.2642 32.8004,-48.267 32.8004,-79.1977 0,-30.9307 -12.535,-58.9323 -32.8004,-79.1989z"/>
  <path class="fil3" d="M1024 1148.88c48.5977,0 92.5997,19.702 124.449,51.5516 31.8508,31.852 51.5516,75.8528 51.5516,124.449 0,48.5965 -19.702,92.5985 -51.5516,124.448 -31.852,31.8508 -75.8528,51.5516 -124.449,51.5516 -48.5965,0 -92.5985,-19.702 -124.448,-51.5516 -31.8496,-31.8496 -51.5516,-75.8516 -51.5516,-124.448 0,-48.5965 19.7008,-92.5973 51.5516,-124.449 31.8496,-31.8496 75.8516,-51.5516 124.448,-51.5516z"/>
  <path class="fil3" d="M767.183 688c38.9032,0 70.4386,31.5366 70.4386,70.4398 0,38.9032 -31.5355,70.4398 -70.4386,70.4398 -38.9044,0 -70.4398,-31.5366 -70.4398,-70.4398 0,-38.9032 31.5355,-70.4398 70.4398,-70.4398z"/>
  <path class="fil3" d="M1280.82 688c38.9032,0 70.4386,31.5366 70.4386,70.4398 0,38.9032 -31.5355,70.4398 -70.4386,70.4398 -38.9044,0 -70.4398,-31.5366 -70.4398,-70.4398 0,-38.9032 31.5355,-70.4398 70.4398,-70.4398z"/>
  <path class="fil4" d="M1024 1216c30.0638,0 57.2859,12.1878 76.989,31.8922 19.7043,19.7043 31.8922,46.9252 31.8922,76.989 0,30.0626 -12.189,57.2847 -31.8922,76.9879 -19.7043,19.7043 -46.9252,31.8922 -76.989,31.8922 -30.0638,0 -57.2847,-12.189 -76.9879,-31.8922 -19.7043,-19.7032 -31.8922,-46.9252 -31.8922,-76.9879 0,-30.0638 12.1878,-57.2847 31.8922,-76.989 19.7032,-19.7043 46.9241,-31.8922 76.9879,-31.8922z"/>
 </g>
</svg>
